<?xml version="1.0" encoding="utf-8"?>
<!-- Generator: Adobe Illustrator 26.4.1, SVG Export Plug-In . SVG Version: 6.00 Build 0)  -->
<svg version="1.1" id="Layer_1" xmlns="http://www.w3.org/2000/svg" xmlns:xlink="http://www.w3.org/1999/xlink" x="0px" y="0px"
	 viewBox="0 0 700 700" style="enable-background:new 0 0 700 700;" xml:space="preserve">
<g>
	<path d="M350,616c146.7,0,266-119.3,266-266S496.7,84,350,84S84,203.3,84,350S203.3,616,350,616z M234.1,296.2
		c3.9-3.9,8.4-5.6,13.4-5.6c5,0,10.1,1.7,13.4,5.6l89,88.5l88.5-88.5c7.3-7.3,19.6-7.3,26.9,0c7.3,7.3,7.3,19.6,0,26.9L363.4,425.6
		c-7.3,7.3-19.6,7.3-26.9,0L234.1,323.1C226.8,315.8,226.8,303.5,234.1,296.2L234.1,296.2z"/>
</g>
</svg>
