<svg width="21" height="13" viewBox="0 0 21 13" fill="none" xmlns="http://www.w3.org/2000/svg">
<path d="M10.4908 9.63693C10.4908 10.1761 10.3799 10.6435 10.1583 11.0479C9.93668 11.4523 9.63193 11.7938 9.2533 12.0634C8.86543 12.333 8.42216 12.5487 7.91425 12.6925C7.40633 12.8363 6.86148 12.9082 6.28892 12.9082H0V0.236572H6.96306C7.41557 0.236572 7.8219 0.335422 8.19129 0.524148C8.56069 0.712874 8.86544 0.964516 9.12401 1.26109C9.38259 1.56664 9.57652 1.90814 9.72427 2.29458C9.8628 2.68102 9.93668 3.06746 9.93668 3.46289C9.93668 4.08299 9.77968 4.65816 9.45646 5.20636C9.14248 5.74558 8.6715 6.14999 8.06201 6.41061C8.81003 6.6263 9.40106 7.01274 9.83509 7.56094C10.2691 8.11813 10.4908 8.81013 10.4908 9.63693ZM2.53034 2.33952V5.53887H5.90106C6.32586 5.53887 6.69525 5.39509 6.99076 5.1075C7.28628 4.81992 7.44327 4.43348 7.44327 3.93021C7.44327 3.42694 7.30475 3.05847 7.0277 2.77089C6.75066 2.48331 6.40897 2.33952 6.01187 2.33952H2.53034ZM7.94195 9.1786C7.94195 8.95392 7.90501 8.73823 7.8219 8.53153C7.73879 8.32483 7.6372 8.14509 7.49868 7.98333C7.36016 7.83055 7.20317 7.70473 7.01847 7.61486C6.83377 7.52499 6.63061 7.48006 6.40897 7.48006H2.53034V10.8142H6.28892C6.51979 10.8142 6.74142 10.7693 6.94459 10.6884C7.14776 10.6075 7.32322 10.4907 7.47098 10.3379C7.61873 10.1851 7.72955 10.0144 7.8219 9.80768C7.90501 9.60997 7.95119 9.39429 7.95119 9.16961L7.94195 9.1786Z" fill="#ED062E"/>
<path d="M15.9763 12.8992C15.2282 12.8992 14.5541 12.7734 13.9538 12.5308C12.7533 12.0365 11.9129 11.2007 11.4235 10.0324C11.1926 9.46621 11.0726 8.87308 11.0726 8.25298C11.0726 7.63288 11.1834 6.9948 11.4143 6.42863C11.8945 5.24235 12.7441 4.39757 13.9446 3.8943C14.5541 3.64266 15.2375 3.51685 15.9947 3.51685C16.752 3.51685 17.4354 3.64266 18.0264 3.8943C19.9934 4.73008 20.9169 6.58141 20.8338 8.59449C20.8338 8.72929 20.8153 8.84611 20.7876 8.93598H13.5937C13.6306 9.29546 13.7137 9.61 13.8615 9.8886C14 10.1672 14.1847 10.4009 14.4156 10.5986C14.6372 10.7963 14.8958 10.9401 15.1821 11.0479C15.4683 11.1558 15.7639 11.2007 16.0686 11.2007C16.5396 11.2007 16.9921 11.0839 17.4077 10.8592C17.8325 10.6345 18.1187 10.338 18.2665 9.96949L20.3074 10.5267C19.9657 11.2187 19.4116 11.7848 18.6636 12.2342C17.9156 12.6746 17.0106 12.8992 15.967 12.8992H15.9763ZM18.3958 7.43516C18.3404 6.75215 18.0818 6.21294 17.6201 5.79954C17.1676 5.38614 16.6135 5.18842 15.9578 5.18842C15.6346 5.18842 15.3391 5.24235 15.062 5.35019C14.785 5.45804 14.5356 5.61081 14.3232 5.80852C14.1108 6.00624 13.9354 6.23989 13.7968 6.51849C13.6583 6.79708 13.5844 7.10264 13.5567 7.43516H18.3866H18.3958Z" fill="#ED062E"/>
<path d="M12.8364 0.829712H19.0699V2.33053H12.8364V0.829712Z" fill="#ED062E"/>
</svg>
