<svg width="26" height="26" viewBox="0 0 26 26" fill="none" xmlns="http://www.w3.org/2000/svg">
<path d="M17.4738 11.8625C16.0062 11.8625 15.8031 13.325 15.8031 13.325H18.921C18.921 13.325 18.9414 11.8625 17.4738 11.8625ZM10.4 13.325H7.63745V15.864H10.2628C10.6589 15.8539 11.4003 15.7422 11.4003 14.6301C11.4003 13.3098 10.4 13.325 10.4 13.325Z" fill="white"/>
<path d="M13 1.625C6.71836 1.625 1.625 6.71836 1.625 13C1.625 19.2816 6.71836 24.375 13 24.375C19.2816 24.375 24.375 19.2816 24.375 13C24.375 6.71836 19.2816 1.625 13 1.625ZM15.3969 8.6125H19.3121V9.78047H15.3969V8.6125ZM13.4164 14.7469C13.4164 17.6414 10.4 17.55 10.4 17.55H5.46406V8.05391H10.4C11.9031 8.05391 13.0863 8.88164 13.0863 10.5828C13.0863 12.284 11.6391 12.3906 11.6391 12.3906C13.5484 12.3906 13.4164 14.7469 13.4164 14.7469ZM20.7391 14.5895H15.8184C15.8184 16.3516 17.4891 16.2398 17.4891 16.2398C19.0684 16.2398 19.0125 15.2191 19.0125 15.2191H20.6832C20.6832 17.9309 17.4332 17.743 17.4332 17.743C13.5383 17.743 13.7871 14.1121 13.7871 14.1121C13.7871 14.1121 13.782 10.466 17.4332 10.466C21.2773 10.4711 20.7391 14.5895 20.7391 14.5895Z" fill="white"/>
<path d="M11.0703 10.7301C11.0703 9.74493 10.4 9.74493 10.4 9.74493H7.63745V11.8625H10.2273C10.6742 11.8625 11.0703 11.7152 11.0703 10.7301Z" fill="white"/>
</svg>
