<?xml version="1.0" encoding="UTF-8"?>
<svg id="Layer_2" data-name="Layer 2" xmlns="http://www.w3.org/2000/svg" viewBox="0 0 100 100">
  <defs>
    <style>
      .cls-1 {
        fill: #fff;
      }
    </style>
  </defs>
  <g id="Layer_1-2" data-name="Layer 1">
    <path class="cls-1" d="M50,0h0C22.39,0,0,22.39,0,50H0c0,27.61,22.39,50,50,50h0c27.61,0,50-22.39,50-50h0C100,22.39,77.61,0,50,0ZM27.29,82.44c-5.38,0-9.73-4.36-9.73-9.73s4.36-9.73,9.73-9.73,9.73,4.36,9.73,9.73-4.36,9.73-9.73,9.73Zm29.2,0h-12.98V17.56l12.98,12.98v51.91Zm16.22-29.2c-5.38,0-9.73-4.36-9.73-9.73s4.36-9.73,9.73-9.73,9.73,4.36,9.73,9.73-4.36,9.73-9.73,9.73Z"/>
  </g>
</svg>