<svg width="31" height="35" viewBox="0 0 31 35" fill="none" xmlns="http://www.w3.org/2000/svg">
<path d="M15.0597 35L2.78526 31.5023L0.0499878 0H30.1L27.3647 31.4945L15.0597 35Z" fill="#264DE4"/>
<path d="M25.018 29.4914L27.357 2.57434H15.075V32.3161L25.018 29.4836V29.4914Z" fill="#2965F1"/>
<path d="M6.32056 14.2566L6.6558 18.122H15.075V14.2566H6.32056Z" fill="#EBEBEB"/>
<path d="M5.64246 6.4397L5.98532 10.3051H15.075V6.4397H5.64246Z" fill="#EBEBEB"/>
<path d="M15.075 24.288H15.0597L10.8692 23.1299L10.6025 20.047H6.82343L7.34915 26.1112L15.0521 28.3099H15.0674V24.288H15.075Z" fill="#EBEBEB"/>
<path d="M23.8066 14.2566L24.4847 6.4397H15.0598V10.3051H20.3627L20.0198 14.2644H15.0598V18.1298H19.6922L19.2579 23.1377L15.0598 24.3035V28.3255L22.7703 26.1267L22.8237 25.4773L23.7075 15.3051L23.7989 14.2644L23.8066 14.2566Z" fill="white"/>
</svg>
