<?xml version="1.0" encoding="utf-8"?>
<!-- Generator: Adobe Illustrator 26.4.1, SVG Export Plug-In . SVG Version: 6.00 Build 0)  -->
<svg version="1.1" id="Layer_1" xmlns="http://www.w3.org/2000/svg" xmlns:xlink="http://www.w3.org/1999/xlink" x="0px" y="0px"
	 viewBox="0 0 31 35" style="enable-background:new 0 0 31 35;" xml:space="preserve">
<style type="text/css">
	.st0{fill:#264DE4;}
	.st1{fill:#2965F1;}
	.st2{fill:#EBEBEB;}
	.st3{fill:#FFFFFF;}
</style>
<g>
	<path class="st0" d="M15.1,35L2.8,31.5L0,0h30.1l-2.7,31.5L15.1,35z"/>
	<path class="st1" d="M25,29.5l2.3-26.9H15.1v29.7L25,29.5L25,29.5z"/>
	<path class="st2" d="M6.3,14.3l0.3,3.9h8.4v-3.9H6.3z"/>
	<path class="st2" d="M5.6,6.4L6,10.3h9.1V6.4H5.6z"/>
	<path class="st2" d="M15.1,24.3L15.1,24.3l-4.2-1.2L10.6,20H6.8l0.5,6.1l7.7,2.2h0L15.1,24.3L15.1,24.3z"/>
	<path class="st3" d="M23.8,14.3l0.7-7.8h-9.4v3.9h5.3l-0.3,4h-5v3.9h4.6l-0.4,5l-4.2,1.2v4l7.7-2.2l0.1-0.6l0.9-10.2L23.8,14.3
		L23.8,14.3z"/>
</g>
</svg>
