<svg width="21" height="18" viewBox="0 0 21 18" fill="none" xmlns="http://www.w3.org/2000/svg">
<path d="M2.4934 0.826416C1.11741 0.826416 0 1.91384 0 3.2529V14.7472C0 16.0863 1.11741 17.1737 2.4934 17.1737H18.5066C19.8826 17.1737 21 16.0863 21 14.7472V3.2529C21 1.91384 19.8826 0.826416 18.5066 0.826416H2.4934ZM2.4934 1.85093H18.5066C19.3193 1.85093 19.9472 2.47103 19.9472 3.2529V3.6663L11.1372 8.56419C10.7401 8.78886 10.2507 8.78886 9.85356 8.56419L1.05277 3.6663V3.2529C1.05277 2.46204 1.68997 1.85093 2.4934 1.85093ZM1.05277 4.85257L9.33641 9.46288C10.0567 9.8673 10.9433 9.8673 11.6636 9.46288L19.9472 4.85257V14.7472C19.9472 15.5381 19.31 16.1492 18.5066 16.1492H2.4934C1.68074 16.1492 1.05277 15.5291 1.05277 14.7472V4.84359V4.85257Z" fill="#ED062E"/>
</svg>
