<svg width="20" height="29" viewBox="0 0 20 29" fill="none" xmlns="http://www.w3.org/2000/svg">
<path d="M4.93513 29C7.60501 29 9.77614 26.8386 9.77614 24.1643V19.3285H4.93513C2.26524 19.3285 0.0941162 21.4899 0.0941162 24.1643C0.0941162 26.8386 2.2579 29 4.93513 29Z" fill="#0ACF83"/>
<path d="M0.10144 14.5C0.10144 11.833 2.26522 9.66425 4.94244 9.66425H9.78345V19.3285H4.94244C2.27255 19.3285 0.10144 17.167 0.10144 14.4927V14.5Z" fill="#A259FF"/>
<path d="M0.10144 4.83578C0.10144 2.16877 2.26522 0 4.94244 0H9.78345V9.66422H4.94244C2.27255 9.66422 0.10144 7.50278 0.10144 4.82845V4.83578Z" fill="#F24E1E"/>
<path d="M9.77612 0H14.6171C17.287 0 19.4581 2.16144 19.4581 4.83578C19.4581 7.51011 17.2943 9.67155 14.6171 9.67155H9.77612V0Z" fill="#FF7262"/>
<path d="M19.4508 14.5C19.4508 17.167 17.287 19.3358 14.6098 19.3358C11.9326 19.3358 9.7688 17.1744 9.7688 14.5C9.7688 11.8257 11.9326 9.66425 14.6098 9.66425C17.287 9.66425 19.4508 11.8257 19.4508 14.5Z" fill="#1ABCFE"/>
</svg>
