<svg width="22" height="21" viewBox="0 0 22 21" fill="none" xmlns="http://www.w3.org/2000/svg">
<path fill-rule="evenodd" clip-rule="evenodd" d="M10.5092 0.468262C4.70053 0.468262 0 5.06959 0 10.7763C0 15.3327 3.01055 19.1881 7.1847 20.5541C7.71108 20.653 7.89578 20.3294 7.89578 20.0598C7.89578 19.8172 7.87731 18.9994 7.87731 18.1456C4.94987 18.7567 4.34037 16.9144 4.34037 16.9144C3.86939 15.7191 3.17678 15.4136 3.17678 15.4136C2.21636 14.7845 3.25066 14.7845 3.25066 14.7845C4.31266 14.8564 4.86675 15.845 4.86675 15.845C5.80871 17.4177 7.32322 16.9683 7.93272 16.6987C8.01583 16.0337 8.30211 15.5753 8.59763 15.3147C6.27045 15.0721 3.81398 14.1914 3.81398 10.2281C3.81398 9.10473 4.22955 8.17908 4.89446 7.46911C4.79288 7.21748 4.42348 6.15701 4.99604 4.73707C4.99604 4.73707 5.88259 4.46747 7.88654 5.79754C8.74538 5.57286 9.62269 5.45603 10.5185 5.45603C11.405 5.45603 12.31 5.57286 13.1504 5.79754C15.1544 4.46747 16.0409 4.73707 16.0409 4.73707C16.6135 6.15701 16.2533 7.20849 16.1425 7.46911C16.8166 8.18807 17.223 9.10473 17.223 10.2281C17.223 14.1824 14.7665 15.0541 12.4208 15.3147C12.7995 15.6383 13.1319 16.2494 13.1319 17.229C13.1319 18.6129 13.1135 19.7183 13.1135 20.0598C13.1135 20.3294 13.3074 20.653 13.8245 20.5541C17.9987 19.1881 21.0092 15.3327 21.0092 10.7763C21.0277 5.07857 16.3087 0.468262 10.5185 0.468262H10.5092Z" fill="#ED062E"/>
</svg>
