<svg width="31" height="35" viewBox="0 0 31 35" fill="none" xmlns="http://www.w3.org/2000/svg">
<path d="M30.05 0L27.3147 31.4945L15.0097 35L2.73528 31.5023L0 0H30.05Z" fill="#E44D26"/>
<path d="M15.025 32.3161L24.968 29.4836L27.307 2.57434H15.025V32.3161Z" fill="#F16529"/>
<path d="M9.6992 10.3051H15.0174V6.4397H5.59247L5.6839 7.47256L6.60582 18.122H15.025V14.2566H10.0497L9.70681 10.2973L9.6992 10.3051Z" fill="#EBEBEB"/>
<path d="M10.5525 20.0548H6.77344L7.29916 26.119L15.0021 28.3177H15.0174V24.2958H15.0021L10.8116 23.1378L10.5449 20.0548H10.5525Z" fill="#EBEBEB"/>
<path d="M15.0098 18.122H19.6422L19.2079 23.1298L15.0098 24.2957V28.3176L22.7203 26.1189L22.7737 25.4694L23.6575 15.2973L23.7489 14.2566H15.0021V18.122H15.0098Z" fill="white"/>
<path d="M15.0098 10.2895L24.0994 10.2973L24.1756 9.42874L24.3432 7.47256L24.4347 6.4397H15.0098V10.2973V10.2895Z" fill="white"/>
</svg>
