<svg width="30" height="29" viewBox="0 0 30 29" fill="none" xmlns="http://www.w3.org/2000/svg">
<path d="M24.2437 0H4.85037C2.18891 0 0.0313721 2.15521 0.0313721 4.81379V23.4608C0.0313721 26.1194 2.18891 28.2746 4.85037 28.2746H24.2437C26.9052 28.2746 29.0627 26.1194 29.0627 23.4608V4.81379C29.0627 2.15521 26.9052 0 24.2437 0Z" fill="#330000"/>
<path d="M14.0996 16.9692H9.60335L8.68649 19.812C8.65715 19.9219 8.5618 19.9952 8.45178 19.9879H6.17064C6.03861 19.9879 5.9946 19.9146 6.03128 19.7754L9.92608 8.57251C9.96276 8.45528 10.0068 8.32339 10.0434 8.17685C10.0948 7.92041 10.1241 7.65664 10.1241 7.38554C10.1241 7.34891 10.1241 7.31228 10.1608 7.28297C10.1901 7.25366 10.2268 7.24633 10.2635 7.24633H13.3588C13.4468 7.24633 13.4982 7.27564 13.5128 7.34158L17.9357 19.79C17.9724 19.9219 17.9357 19.9879 17.8184 19.9879H15.2879C15.1998 19.9952 15.1118 19.9366 15.0898 19.8487L14.0996 16.9692ZM10.3002 14.5146H13.3735L13.3295 14.3681L13.2561 14.141L13.2048 13.9798L13.1241 13.7233L12.9554 13.1885L12.8087 12.7122L12.4199 11.4813C12.3172 11.1662 12.2292 10.8585 12.1412 10.5581L12.0679 10.309L11.9872 10.0159L11.8625 9.55432C11.8625 9.55432 11.8478 9.4957 11.8405 9.46639H11.8185C11.7231 9.93532 11.6058 10.3969 11.4664 10.8512L11.1803 11.7817L11.019 12.2946L10.8576 12.8148C10.8283 12.9101 10.7989 12.998 10.7696 13.0932L10.6816 13.3643L10.5936 13.6281L10.5055 13.8845L10.4175 14.1336C10.3882 14.2142 10.3588 14.3022 10.3368 14.3828L10.2928 14.5L10.3002 14.5146ZM20.5616 9.29787C20.1582 9.31253 19.7695 9.15866 19.4907 8.87291C19.212 8.57251 19.0653 8.17685 19.08 7.76654C19.0653 7.36356 19.2267 6.96791 19.5201 6.68949C19.7988 6.41839 20.1729 6.27185 20.5616 6.27185H20.6056C21.0751 6.27185 21.4418 6.41106 21.7059 6.68949C21.9773 6.98256 22.1239 7.37089 22.1019 7.76654C22.1166 8.17685 21.9699 8.57983 21.6839 8.87291C21.3978 9.15866 21.009 9.31253 20.6056 9.3052H20.5616V9.29787ZM19.2193 19.7827V10.4922C19.2193 10.3749 19.2707 10.3163 19.3734 10.3163H21.7719C21.8746 10.3163 21.9259 10.3749 21.9259 10.4922V19.79C21.9259 19.9219 21.8746 19.9879 21.7719 19.9879H19.3954C19.2854 19.9879 19.2267 19.9293 19.2193 19.812V19.79V19.7827Z" fill="#FF9A00"/>
</svg>
