<svg width="21" height="21" viewBox="0 0 21 21" fill="none" xmlns="http://www.w3.org/2000/svg">
<path fill-rule="evenodd" clip-rule="evenodd" d="M5.59631 0H15.1544C18.2203 0 20.7507 2.45344 20.7507 5.4461V14.7027C20.7507 17.6863 18.2296 20.1488 15.1544 20.1488H5.59631C2.53034 20.1488 0 17.6953 0 14.7027V5.4461C0 2.46243 2.52111 0 5.59631 0ZM15.9486 3.5139C16.595 3.5139 17.1398 4.04414 17.1398 4.67322C17.1398 5.30231 16.595 5.83254 15.9486 5.83254C15.2559 5.83254 14.7573 5.30231 14.7573 4.67322C14.7573 4.04414 15.2559 3.5139 15.9486 3.5139ZM10.3522 4.57437H10.3984C13.4644 4.57437 16.0409 7.08173 16.0409 10.0654C16.0409 13.103 13.4644 15.5564 10.3984 15.5564H10.3522C7.28628 15.5564 4.75594 13.103 4.75594 10.0654C4.75594 7.08173 7.27705 4.57437 10.3522 4.57437ZM10.3522 6.45264H10.3984C12.4301 6.45264 14.1108 8.08827 14.1108 10.0654C14.1108 12.0875 12.4301 13.7321 10.3984 13.7321H10.3522C8.32058 13.7321 6.63984 12.0965 6.63984 10.0654C6.63984 8.08827 8.32058 6.45264 10.3522 6.45264ZM5.65172 1.73448H15.1082C17.2414 1.73448 18.9683 3.42403 18.9683 5.49103V14.6487C18.9683 16.7247 17.2322 18.4053 15.1082 18.4053H5.64248C3.50924 18.4053 1.78232 16.7157 1.78232 14.6487V5.49103C1.78232 3.41505 3.51847 1.73448 5.64248 1.73448H5.65172Z" fill="#ED062E"/>
</svg>
