<svg width="31" height="31" viewBox="0 0 31 31" fill="none" xmlns="http://www.w3.org/2000/svg">
<path d="M0.0999756 0.0187988H30.2566V30.9812H0.0999756V0.0187988Z" fill="#F7DF1E"/>
<path d="M8.03149 25.8952L10.3401 24.4633C10.782 25.277 11.1934 25.9578 12.1611 25.9578C13.1287 25.9578 13.6773 25.5822 13.6773 24.1268V14.2285H16.5116V24.1659C16.5116 27.1784 14.7897 28.5556 12.283 28.5556C10.0125 28.5556 8.70198 27.3506 8.03149 25.8952Z" fill="black"/>
<path d="M18.0507 25.5822L20.3593 24.2129C20.9688 25.2301 21.7536 25.9813 23.1555 25.9813C24.3289 25.9813 25.0755 25.3787 25.0755 24.5493C25.0755 23.5478 24.306 23.1957 23.0107 22.6166L22.3022 22.3036C20.2602 21.4116 18.904 20.2849 18.904 17.914C18.904 15.7309 20.5269 14.072 23.0565 14.072C24.8546 14.072 26.1498 14.7136 27.087 16.4038L24.8774 17.8592C24.3898 16.9672 23.8641 16.6151 23.0565 16.6151C22.2488 16.6151 21.7002 17.155 21.7002 17.8592C21.7002 18.7356 22.226 19.0877 23.4374 19.6276L24.146 19.9406C26.5536 20.9969 27.9099 22.0845 27.9099 24.5102C27.9099 27.1315 25.906 28.5634 23.2165 28.5634C20.5269 28.5634 18.8812 27.2723 18.0583 25.59" fill="black"/>
</svg>
