<svg width="30" height="30" viewBox="0 0 30 30" fill="none" xmlns="http://www.w3.org/2000/svg">
<path d="M5 22.5C4.64583 22.5 4.34917 22.38 4.11 22.14C3.87 21.9008 3.75 21.6042 3.75 21.25C3.75 20.8958 3.87 20.5992 4.11 20.36C4.34917 20.12 4.64583 20 5 20H25C25.3542 20 25.6508 20.12 25.89 20.36C26.13 20.5992 26.25 20.8958 26.25 21.25C26.25 21.6042 26.13 21.9008 25.89 22.14C25.6508 22.38 25.3542 22.5 25 22.5H5ZM5 16.25C4.64583 16.25 4.34917 16.13 4.11 15.89C3.87 15.6508 3.75 15.3542 3.75 15C3.75 14.6458 3.87 14.3487 4.11 14.1087C4.34917 13.8696 4.64583 13.75 5 13.75H25C25.3542 13.75 25.6508 13.8696 25.89 14.1087C26.13 14.3487 26.25 14.6458 26.25 15C26.25 15.3542 26.13 15.6508 25.89 15.89C25.6508 16.13 25.3542 16.25 25 16.25H5ZM5 10C4.64583 10 4.34917 9.88042 4.11 9.64125C3.87 9.40125 3.75 9.10417 3.75 8.75C3.75 8.39583 3.87 8.09875 4.11 7.85875C4.34917 7.61958 4.64583 7.5 5 7.5H25C25.3542 7.5 25.6508 7.61958 25.89 7.85875C26.13 8.09875 26.25 8.39583 26.25 8.75C26.25 9.10417 26.13 9.40125 25.89 9.64125C25.6508 9.88042 25.3542 10 25 10H5Z" fill="white"/>
</svg>
