<svg width="23" height="16" viewBox="0 0 23 16" fill="none" xmlns="http://www.w3.org/2000/svg">
<path d="M1.27778 15.6667C0.915745 15.6667 0.61206 15.544 0.366726 15.2987C0.121393 15.0533 -0.00084743 14.7501 4.42138e-06 14.3889C4.42138e-06 14.0269 0.122671 13.7232 0.368004 13.4778C0.613338 13.2325 0.916597 13.1103 1.27778 13.1111H21.7222C22.0843 13.1111 22.3879 13.2338 22.6333 13.4791C22.8786 13.7245 23.0008 14.0277 23 14.3889C23 14.7509 22.8773 15.0546 22.632 15.3C22.3867 15.5453 22.0834 15.6675 21.7222 15.6667H1.27778ZM1.27778 9.27779C0.915745 9.27779 0.61206 9.15512 0.366726 8.90979C0.121393 8.66446 -0.00084743 8.3612 4.42138e-06 8.00001C4.42138e-06 7.63797 0.122671 7.33429 0.368004 7.08896C0.613338 6.84362 0.916597 6.72138 1.27778 6.72223H21.7222C22.0843 6.72223 22.3879 6.8449 22.6333 7.09023C22.8786 7.33557 23.0008 7.63883 23 8.00001C23 8.36205 22.8773 8.66573 22.632 8.91107C22.3867 9.1564 22.0834 9.27864 21.7222 9.27779H1.27778ZM1.27778 2.8889C0.915745 2.8889 0.61206 2.76624 0.366726 2.5209C0.121393 2.27557 -0.00084743 1.97231 4.42138e-06 1.61113C4.42138e-06 1.24909 0.122671 0.945403 0.368004 0.70007C0.613338 0.454737 0.916597 0.332496 1.27778 0.333348H21.7222C22.0843 0.333348 22.3879 0.456015 22.6333 0.701348C22.8786 0.946681 23.0008 1.24994 23 1.61113C23 1.97316 22.8773 2.27685 22.632 2.52218C22.3867 2.76751 22.0834 2.88975 21.7222 2.8889H1.27778Z" fill="black"/>
</svg>
