<svg width="30" height="29" viewBox="0 0 30 29" fill="none" xmlns="http://www.w3.org/2000/svg">
<path d="M24.2124 0H4.819C2.15754 0 0 2.15521 0 4.81379V23.4608C0 26.1194 2.15754 28.2746 4.819 28.2746H24.2124C26.8738 28.2746 29.0314 26.1194 29.0314 23.4608V4.81379C29.0314 2.15521 26.8738 0 24.2124 0Z" fill="#001E36"/>
<path d="M6.53534 19.8267V7.40022C6.53534 7.3123 6.57201 7.26101 6.6527 7.26101H6.77739H6.9901H7.2835L8.26637 7.2317L9.31525 7.20972C9.68199 7.20972 10.0487 7.20239 10.4155 7.20239C11.3983 7.20239 12.2345 7.32695 12.9093 7.56874C13.5181 7.77389 14.0756 8.11093 14.5377 8.55788C14.9264 8.9462 15.2345 9.41513 15.4252 9.92801C15.6086 10.4336 15.6966 10.9611 15.6966 11.496C15.6966 12.5364 15.4545 13.3863 14.9778 14.0604C14.5083 14.7198 13.8555 15.2181 13.0927 15.5038L13.0267 15.5258C12.2345 15.8189 11.3617 15.9288 10.4008 15.9361H10.2541H10.0341H9.92404H9.79935H9.726H9.68199H9.57197H9.43261H9.22723C9.22723 15.9361 9.19789 15.9361 9.18322 15.9361V19.8194C9.18322 19.8707 9.17589 19.9146 9.13921 19.9513C9.10254 19.9879 9.05853 20.0025 9.00719 19.9952H6.68937C6.60135 19.9952 6.55001 19.9439 6.55001 19.8414L6.53534 19.8267ZM9.16855 9.5983V13.6501C9.33725 13.6647 9.49129 13.6721 9.63798 13.6721H10.2835C10.7235 13.6721 11.1636 13.6061 11.5891 13.4742L11.6771 13.4449C12.0658 13.3277 12.4106 13.1079 12.6673 12.8002C12.9093 12.5144 13.0414 12.1188 13.0487 11.6132V11.5546C13.056 11.1809 12.9607 10.8072 12.77 10.4849C12.5646 10.1698 12.2712 9.93534 11.9265 9.79613C11.4717 9.62028 10.9876 9.53968 10.5035 9.55434H10.2541H10.1001H9.95338H9.74067H9.58664H9.50596H9.40327L9.31525 9.56167H9.26391L9.2199 9.56899C9.2199 9.56899 9.20523 9.56899 9.19789 9.56899H9.18322L9.16855 9.5983ZM23.2221 12.9174C22.8847 12.7416 22.5253 12.6097 22.1512 12.5291L22.0632 12.5071C21.6525 12.4118 21.2344 12.3606 20.8163 12.3532H20.7136C20.4642 12.3459 20.2222 12.3752 19.9801 12.4411C19.8261 12.4778 19.6941 12.5584 19.5987 12.6829C19.5327 12.7782 19.5034 12.8954 19.5034 13.0127C19.5034 13.1299 19.5474 13.2325 19.6207 13.3204C19.7234 13.4376 19.8481 13.5402 19.9875 13.6208L20.0315 13.6428C20.3102 13.7893 20.5963 13.9285 20.8897 14.0384C21.5425 14.2582 22.1659 14.5513 22.7527 14.925C23.1488 15.1741 23.4789 15.5185 23.7062 15.9288C23.8969 16.3171 23.9996 16.7421 23.985 17.1743C23.9996 17.7458 23.8309 18.3027 23.5155 18.7789C23.1781 19.2625 22.7087 19.6362 22.1586 19.856C21.5865 20.1051 20.8897 20.237 20.0535 20.2443H19.9655C19.452 20.2443 18.9386 20.2077 18.4251 20.1124L18.3151 20.0905C17.8897 20.0099 17.4716 19.878 17.0755 19.7021C16.9948 19.6582 16.9435 19.5776 16.9362 19.4897V17.3722C16.9362 17.3282 16.9508 17.2916 16.9875 17.2623C17.0242 17.2403 17.0609 17.2476 17.0975 17.2696C17.567 17.5407 18.0657 17.7458 18.5938 17.8631C19.0559 17.9803 19.5327 18.0389 20.0168 18.0463C20.4716 18.0463 20.809 17.9876 21.0217 17.8704C21.2197 17.7825 21.3444 17.5847 21.3444 17.3648C21.3444 17.1963 21.2491 17.0351 21.051 16.8813C20.9703 16.8153 20.853 16.7421 20.6989 16.6688L20.6256 16.6322L20.5449 16.5955C20.5449 16.5955 20.5156 16.5809 20.5009 16.5735L20.4129 16.5369C20.4129 16.5369 20.3835 16.5223 20.3689 16.5149L20.2735 16.4783C20.2735 16.4783 20.2442 16.4636 20.2222 16.4563L20.1195 16.4197C20.1195 16.4197 20.0828 16.405 20.0681 16.3977L19.9581 16.3537L19.8481 16.3098C19.2393 16.0973 18.6599 15.8042 18.1244 15.4379C17.743 15.1741 17.4276 14.8224 17.2076 14.4194C17.0168 14.0384 16.9215 13.6135 16.9288 13.1812C16.9288 12.6683 17.0682 12.1627 17.3396 11.7231C17.6476 11.2395 18.0877 10.8512 18.6085 10.6167C19.1806 10.331 19.8921 10.1918 20.7503 10.1918C21.2491 10.1918 21.7552 10.2211 22.2466 10.3017C22.606 10.3456 22.9581 10.4409 23.2882 10.5801C23.3395 10.5948 23.3835 10.6387 23.4055 10.69C23.4202 10.734 23.4275 10.7853 23.4275 10.8366V12.8002C23.4275 12.8441 23.4055 12.8881 23.3688 12.9174C23.3175 12.9467 23.2515 12.9467 23.2001 12.9174H23.2221Z" fill="#31A8FF"/>
</svg>
