<svg width="30" height="29" viewBox="0 0 30 29" fill="none" xmlns="http://www.w3.org/2000/svg">
<path d="M5.20447 0H23.9524C26.7983 0 29.0941 2.29333 29.0941 5.13618V23.1385C29.0941 25.9813 26.7983 28.2746 23.9524 28.2746H5.20447C2.35855 28.2746 0.0627441 25.9813 0.0627441 23.1385V5.13618C0.0627441 2.29333 2.35855 0 5.20447 0Z" fill="#00005B"/>
<path d="M6.95752 19.8267V7.40022C6.95752 7.31229 6.9942 7.26833 7.07488 7.26833H7.25092H7.39027H7.48563H7.58832H7.69835H7.75702C7.86704 7.26833 7.97707 7.26101 8.08709 7.26101H8.43183C8.46851 7.25368 8.51251 7.25368 8.54918 7.25368H8.67387C8.7839 7.24635 8.89392 7.24635 9.01128 7.23902H9.36335L9.6054 7.22437H9.73009C9.97948 7.20972 10.2215 7.20972 10.4709 7.20972H10.8377C11.8279 7.20972 12.6494 7.32695 13.3315 7.58339C13.933 7.78854 14.4904 8.12558 14.9525 8.57253C15.3413 8.96085 15.642 9.42978 15.8327 9.94999C16.0161 10.4555 16.1114 10.9758 16.1114 11.518C16.1114 12.5584 15.8694 13.4156 15.3853 14.0897C14.9012 14.7638 14.2264 15.2767 13.4415 15.5624C12.6494 15.8555 11.7692 15.9654 10.8157 15.9727H10.4709H10.3389H10.2509H10.1995H10.1555H10.1115C10.0895 15.9727 10.0602 15.9727 10.0308 15.9727H9.97215H9.90613H9.79612H9.5834V19.8487C9.59807 19.9366 9.53206 20.0025 9.45138 20.0172H7.10421C7.00886 20.0172 6.95752 19.9659 6.95752 19.8633V19.8267ZM9.59073 9.59097V13.6501H9.73009C9.84745 13.6647 9.95747 13.6721 10.0602 13.6721H10.6983C11.1677 13.6721 11.6445 13.5988 12.0919 13.4523C12.4807 13.3424 12.8181 13.1152 13.0821 12.8148C13.3388 12.5144 13.4562 12.1041 13.4562 11.5692C13.4709 11.1956 13.3682 10.8219 13.1775 10.4922C12.9794 10.1918 12.708 9.95732 12.378 9.8181L12.334 9.80345C11.8865 9.62028 11.4024 9.54701 10.9037 9.56166H10.6249H10.4929H10.3682H10.2509C10.1922 9.56166 10.1409 9.56166 10.0822 9.56166C10.0528 9.56166 10.0308 9.56166 10.0015 9.56166H9.92814C9.92814 9.56166 9.90613 9.56166 9.89146 9.56166H9.82545H9.76677C9.75944 9.56166 9.75211 9.56166 9.73744 9.56166H9.68609H9.64208C9.64208 9.56166 9.62741 9.56166 9.62008 9.56166H9.5834H9.56873L9.59073 9.59097ZM17.7911 10.2944H19.9109C20.0282 10.2944 20.1163 10.3676 20.1603 10.4702V10.4849C20.2043 10.5801 20.2263 10.6754 20.2409 10.7853C20.2629 10.9025 20.2923 11.0417 20.2996 11.1589V11.2762C20.3143 11.3787 20.3216 11.4813 20.3216 11.5912C20.6664 11.1882 21.0771 10.8512 21.5465 10.5874L21.6126 10.5508C22.17 10.2357 22.8081 10.0819 23.4536 10.0819C23.5416 10.0672 23.6076 10.1332 23.6223 10.2138V12.617C23.6223 12.7122 23.5636 12.7489 23.4316 12.7489C23.0282 12.7342 22.6101 12.7709 22.2067 12.8515L22.1187 12.8734C21.7666 12.9467 21.4292 13.0566 21.0991 13.2031C20.8717 13.3131 20.6517 13.4596 20.483 13.6501V19.812C20.483 19.9293 20.4316 19.9806 20.329 19.9806H17.9451C17.8498 19.9952 17.7618 19.9293 17.7544 19.834V13.0932C17.7544 12.8002 17.7544 12.4998 17.7398 12.1847V11.9502V11.4813C17.7251 11.4007 17.7251 11.3275 17.7251 11.2469C17.7251 10.9684 17.7031 10.7047 17.6737 10.4262C17.6591 10.3676 17.6957 10.309 17.7618 10.2944C17.7618 10.287 17.7764 10.2797 17.7911 10.2944Z" fill="#9999FF"/>
</svg>
