<svg width="24" height="24" viewBox="0 0 24 24" fill="none" xmlns="http://www.w3.org/2000/svg">
<path d="M11 21C9.75 21 8.57933 20.7667 7.488 20.3C6.396 19.8333 5.44167 19.1917 4.625 18.375C3.80833 17.5583 3.16667 16.604 2.7 15.512C2.23333 14.4207 2 13.25 2 12C2 9.48333 2.871 7.354 4.613 5.612C6.35433 3.87067 8.48333 3 11 3C11.2167 3 11.425 3.00833 11.625 3.025C11.825 3.04167 12.025 3.06667 12.225 3.1C12.4417 3.13333 12.625 3.24567 12.775 3.437C12.925 3.629 13 3.84167 13 4.075C13 4.40833 12.8877 4.66233 12.663 4.837C12.4377 5.01233 12.15 5.08333 11.8 5.05C11.6667 5.03333 11.5333 5.02067 11.4 5.012C11.2667 5.004 11.1333 5 11 5C9.03333 5 7.375 5.675 6.025 7.025C4.675 8.375 4 10.0333 4 12C4 13.9667 4.675 15.625 6.025 16.975C7.375 18.325 9.03333 19 11 19C12.95 19 14.596 18.3333 15.938 17C17.2793 15.6667 17.9667 14.025 18 12.075C18 11.7917 18.096 11.5417 18.288 11.325C18.4793 11.1083 18.7167 11 19 11C19.2667 11 19.5 11.0957 19.7 11.287C19.9 11.479 20 11.7 20 11.95V12C20 14.5167 19.129 16.6457 17.387 18.387C15.6457 20.129 13.5167 21 11 21ZM19 9C18.7167 9 18.4793 8.904 18.288 8.712C18.096 8.52067 18 8.28333 18 8V6H16C15.7167 6 15.4793 5.90433 15.288 5.713C15.096 5.521 15 5.28333 15 5C15 4.71667 15.096 4.479 15.288 4.287C15.4793 4.09567 15.7167 4 16 4H18V2C18 1.71667 18.096 1.479 18.288 1.287C18.4793 1.09567 18.7167 1 19 1C19.2833 1 19.5207 1.09567 19.712 1.287C19.904 1.479 20 1.71667 20 2V4H22C22.2833 4 22.5207 4.09567 22.712 4.287C22.904 4.479 23 4.71667 23 5C23 5.28333 22.904 5.521 22.712 5.713C22.5207 5.90433 22.2833 6 22 6H20V8C20 8.28333 19.904 8.52067 19.712 8.712C19.5207 8.904 19.2833 9 19 9ZM13.1 15.5L10.3 12.7C10.2 12.6 10.125 12.4873 10.075 12.362C10.025 12.2373 10 12.1083 10 11.975V8C10 7.71667 10.096 7.479 10.288 7.287C10.4793 7.09567 10.7167 7 11 7C11.2833 7 11.521 7.09567 11.713 7.287C11.9043 7.479 12 7.71667 12 8V11.6L14.5 14.1C14.6833 14.2833 14.775 14.5167 14.775 14.8C14.775 15.0833 14.6833 15.3167 14.5 15.5C14.3167 15.6833 14.0833 15.775 13.8 15.775C13.5167 15.775 13.2833 15.6833 13.1 15.5Z" fill="#E53F41"/>
</svg>
