<svg width="19" height="21" viewBox="0 0 19 21" fill="none" xmlns="http://www.w3.org/2000/svg">
<path fill-rule="evenodd" clip-rule="evenodd" d="M17.2045 4.96582C16.2071 4.83101 15.3391 4.30078 14.6187 3.50993C13.7599 2.58428 13.2612 1.34407 13.2982 0.148804H9.71504V14.0606C9.71504 15.6962 8.35752 17.0173 6.63061 17.0173C5.63325 17.0173 4.72823 16.532 4.1372 15.7771C3.77705 15.2918 3.59235 14.6717 3.59235 14.0516C3.59235 12.416 4.94987 11.0949 6.63061 11.0949C6.94459 11.0949 7.26781 11.1399 7.53562 11.2297V7.69784C7.26781 7.65291 6.94459 7.60798 6.63061 7.60798H6.49208C2.8628 7.69785 0 10.5647 0 14.0606C0 15.7412 0.683377 17.2869 1.77309 18.4373C3.00132 19.6775 4.719 20.4683 6.63061 20.4683C10.3061 20.4683 13.3074 17.6015 13.3074 14.0606V6.81713C14.6649 8.01239 16.438 8.58756 18.2573 8.45276V4.96582C17.8971 5.05568 17.5277 5.05568 17.2137 4.96582H17.2045Z" fill="#ED062E"/>
</svg>
