<svg width="21" height="17" viewBox="0 0 21 17" fill="none" xmlns="http://www.w3.org/2000/svg">
<path fill-rule="evenodd" clip-rule="evenodd" d="M9.92744 5.08581C9.12401 0.978766 14.1939 -1.4567 17.186 1.50001C17.186 1.50001 18.5158 1.14053 19.6979 0.412584C19.6979 0.412584 19.2731 1.81455 17.8325 2.69527C17.8325 2.69527 19.4301 2.48858 20.1227 2.07518C20.1227 2.07518 19.4301 3.47714 18.1464 3.99839C18.8391 13.3987 8.4314 19.1144 0 14.4412C0 14.4412 4.16491 14.6479 5.91952 12.6798C5.91952 12.6798 3.36148 12.8865 2.07784 9.87586C2.07784 9.87586 3.03826 10.2353 3.99868 9.76801C3.99868 9.76801 1.0066 9.30069 0.738786 5.82274C0.738786 5.82274 1.69921 6.55068 2.77045 6.29006C2.77045 6.29006 -0.53562 4.36685 1.32982 0.888898C1.32982 0.888898 4.84828 5.24757 9.91821 5.0948L9.92744 5.08581Z" fill="#ED062E"/>
</svg>
